<svg id="Capa_1" data-name="Capa 1" xmlns="http://www.w3.org/2000/svg" viewBox="0 0 313.35 300"><path d="M248.52,13.1H64.79A47.88,47.88,0,0,0,17,60.9V244.67a47.87,47.87,0,0,0,47.84,47.84H248.52a47.92,47.92,0,0,0,47.88-47.84V60.9a47.92,47.92,0,0,0-47.88-47.8Zm39.69,231.61a39.69,39.69,0,0,1-39.69,39.65H64.79A39.72,39.72,0,0,1,25.1,244.71V60.9A39.74,39.74,0,0,1,64.79,21.33H248.52A39.69,39.69,0,0,1,288.21,61Z" style="fill:#fa8f00;stroke:#fa8f00;stroke-linejoin:round;stroke-width:7px"/><path d="M156.68,74.32a78.6,78.6,0,1,0,55.45,23,78.51,78.51,0,0,0-55.45-23Zm0,148.78h0a70.47,70.47,0,1,1,49.65-20.66,70.34,70.34,0,0,1-49.65,20.66Z" style="fill:#fa8f00;stroke:#fa8f00;stroke-linejoin:round;stroke-width:7px"/><path d="M239.8,48.05a21.65,21.65,0,1,0,15.32,6.31,21.62,21.62,0,0,0-15.32-6.31Zm0,35a13.43,13.43,0,1,1,9.51-3.92,13.48,13.48,0,0,1-9.51,3.92Z" style="fill:#fa8f00;stroke:#fa8f00;stroke-linejoin:round;stroke-width:7px"/><path d="M122.42,118.57a48.23,48.23,0,0,1,62.25-5.18,4.12,4.12,0,1,0,4.73-6.67,56.52,56.52,0,0,0-78.83,78.84,4.16,4.16,0,0,0,6.83-4.74,48.21,48.21,0,0,1,5.19-62.25Z" style="fill:#fa8f00;stroke:#fa8f00;stroke-linejoin:round;stroke-width:7px"/><path d="M197,119.07a4.11,4.11,0,0,0-1,5.72,48.33,48.33,0,0,1-67.43,67.44,4.09,4.09,0,1,0-4.74,6.66,56.69,56.69,0,0,0,32.94,10.46h4.36a56.52,56.52,0,0,0,41.54-89.21,4.11,4.11,0,0,0-5.72-1Z" style="fill:#fa8f00;stroke:#fa8f00;stroke-linejoin:round;stroke-width:7px"/></svg>