<svg id="Capa_1" data-name="Capa 1" xmlns="http://www.w3.org/2000/svg" xmlns:xlink="http://www.w3.org/1999/xlink" viewBox="0 0 408.65 344.47"><defs><clipPath id="clip-path"><rect y="5.97" width="408.65" height="339.01" style="fill:none"/></clipPath></defs><path d="M216.36,153.29a54.82,54.82,0,0,0,45.88-54.07,56.58,56.58,0,0,0-.57-7.86H153.18a56.47,56.47,0,0,0-.57,7.86,54.79,54.79,0,0,0,63.76,54.07Z" style="fill:none;stroke:#fa8f00;stroke-miterlimit:10;stroke-width:7px"/><path d="M150.09,76.78a7.36,7.36,0,0,0,0,14.71H264.74a7.36,7.36,0,0,0,0-14.71h-1c0-1.64-.15-3.26-.33-4.87A56.34,56.34,0,0,0,239.17,31.7v4.5a5.82,5.82,0,1,1-11.64,0V25.62a55.75,55.75,0,0,0-14.3-3.42v14a5.82,5.82,0,1,1-11.63,0v-14a55.82,55.82,0,0,0-14.31,3.42V36.2a5.82,5.82,0,1,1-11.64,0V31.71a56.33,56.33,0,0,0-24.22,40.2c-.18,1.6-.29,3.23-.33,4.87Z" style="fill:none;stroke:#fa8f00;stroke-miterlimit:10;stroke-width:7px"/><g style="clip-path:url(#clip-path)"><path d="M126.91,422.61l14.62-9.91v18h60.25V372.19h11.29v58.54h60.25v-204a107.84,107.84,0,0,1,4.33,10.33c6.87,19,12.65,50.26,12.62,99,0,13.44-.43,28.2-1.37,44.41a19.48,19.48,0,0,0,18.32,20.58c.38,0,.77,0,1.15,0a19.5,19.5,0,0,0,19.45-18.35c1-16.89,1.44-32.4,1.44-46.67-.1-73.53-11.85-114.23-27.86-138.69-8-12.15-17.37-19.95-26-24.26a46.34,46.34,0,0,0-20-5.2c-.29,0-.57,0-.85,0H160.36c-.25,0-.5,0-.76,0a45.32,45.32,0,0,0-17.13,3.8,56.77,56.77,0,0,0-15.07,9.55,83.58,83.58,0,0,0-18.74,24.12C98.7,224,91,250.31,87.5,289.26v.15q-.8,9-1.27,18.88c-.41,8.71-.64,18-.64,27.82,0,14.26.46,29.78,1.45,46.66a19.49,19.49,0,0,0,19.44,18.35l1.16,0A19.51,19.51,0,0,0,126,380.49c-1-16.2-1.39-30.95-1.39-44.38,0-11,.29-21,.82-30.26.26-4.55.57-8.92.94-13.07v-.09c.18-2.06.38-4.06.59-6,3.07-29.37,8.9-48.22,14.62-60v74.18l-11.42,7.72q-.23,4.47-.37,9.09l11.1-7.52,43.72,64.55-81.69,55.33L59.16,365.52,80.89,350.8q-.09-4.43-.13-8.74L49,363.57l51.92,76.65Zm71.25-234.77h18.52l4.63,18.27-.71,1.11a20.55,20.55,0,0,1-26.35,0l-.72-1.13Zm-.55,29.67a27.88,27.88,0,0,0,9.81,1.81h0a27.79,27.79,0,0,0,9.8-1.81l13.34,98.24L207.42,345l-23.14-29.23Z" style="fill:none;stroke:#fa8f00;stroke-miterlimit:10;stroke-width:7px"/></g></svg>