<svg id="Capa_1" data-name="Capa 1" xmlns="http://www.w3.org/2000/svg" viewBox="0 0 408.65 344.47"><path d="M203.76,23.36a3.25,3.25,0,0,0-6.49,0V46a3.25,3.25,0,0,0,6.49,0ZM63.4,37.26a3.24,3.24,0,0,0-4.58,4.57l53.49,53.4a3.24,3.24,0,0,0,4.59-4.57Zm287.2,0a3.24,3.24,0,0,1,4.59,4.57l-53.5,53.4a3.24,3.24,0,1,1-4.58-4.57ZM116.22,160.91a89.16,89.16,0,1,1,122,82.77l-2,.81v18.37h-61.6V244.49l-2.05-.81a89,89,0,0,1-56.31-82.77Zm89.16-95.47A95.46,95.46,0,0,0,168.1,248.86v14a6.48,6.48,0,0,0,6.48,6.48h61.6a6.48,6.48,0,0,0,6.48-6.48v-14A95.46,95.46,0,0,0,205.38,65.44ZM174.58,301.7a6.47,6.47,0,0,0-6.48,6.47v16.18a6.47,6.47,0,0,0,6.48,6.47h61.6a6.47,6.47,0,0,0,6.48-6.47V308.17a6.47,6.47,0,0,0-6.48-6.47Zm0,22.65V308.17h61.6v16.18Zm-9.72-38.84a9.71,9.71,0,0,1,9.72-9.7h61.6a9.71,9.71,0,1,1,0,19.41h-61.6A9.71,9.71,0,0,1,164.86,285.51Zm9.72-3.23a3.24,3.24,0,1,0,0,6.47h61.6a3.24,3.24,0,1,0,0-6.47Zm4.06-142.41a13.76,13.76,0,1,0,0,27.52h10.53v68h6.49v-68h17.83v68H220v-68h10.54a13.76,13.76,0,1,0,0-27.52h-1.62a15.39,15.39,0,0,0-15.4,15.38v5.66H195.66v-5.67a15.39,15.39,0,0,0-15.4-15.37Zm10.53,15.37v5.67H178.64a7.28,7.28,0,1,1,0-14.56h1.62a8.9,8.9,0,0,1,8.91,8.89Zm41.34,5.67H220v-5.66a8.91,8.91,0,0,1,8.92-8.9h1.62a7.28,7.28,0,1,1,0,14.56Zm-39.72,89a3.25,3.25,0,0,1,3.25-3.24h22.69a3.24,3.24,0,1,1,0,6.47H194A3.25,3.25,0,0,1,190.79,249.92Zm-62.54-2.29a3.24,3.24,0,0,0-4.59,0l-55.11,55a3.24,3.24,0,0,0,4.58,4.58l55.12-55A3.24,3.24,0,0,0,128.25,247.63Zm168.58,0,53.5,53.4a3.24,3.24,0,0,1-4.59,4.57l-53.49-53.4a3.24,3.24,0,1,1,4.58-4.57Zm49.58-75.39a3.24,3.24,0,0,1-3.24,3.23H320.48a3.24,3.24,0,1,1,0-6.47h22.69A3.24,3.24,0,0,1,346.41,172.24ZM67.6,175.47a3.24,3.24,0,1,1,0-6.47H90.29a3.24,3.24,0,1,1,0,6.47Zm268.36-63a2.73,2.73,0,0,1-.91,4.15l-19.12,10.49a3.83,3.83,0,0,1-4.78-1,2.73,2.73,0,0,1,.91-4.15l19.13-10.49a3.82,3.82,0,0,1,4.77,1.05ZM128,34.69a3.6,3.6,0,0,0-4.67-1,2.9,2.9,0,0,0-.94,4.26L135.89,57a3.62,3.62,0,0,0,4.67,1,2.91,2.91,0,0,0,.94-4.27ZM332.72,234.54a2.73,2.73,0,0,0-.91-4.15L312.69,219.9a3.84,3.84,0,0,0-4.78,1,2.74,2.74,0,0,0,.91,4.16L328,235.58a3.82,3.82,0,0,0,4.77-1Zm-257-118a2.73,2.73,0,0,1-.91-4.15,3.83,3.83,0,0,1,4.78-1l19.12,10.48a2.74,2.74,0,0,1,.91,4.16,3.83,3.83,0,0,1-4.77,1ZM280.2,33.66a3.62,3.62,0,0,0-4.67,1L262,53.78a2.9,2.9,0,0,0,.93,4.27,3.63,3.63,0,0,0,4.68-1l13.49-19.09A2.91,2.91,0,0,0,280.2,33.66ZM79,230.38a2.74,2.74,0,0,0-.91,4.16,3.84,3.84,0,0,0,4.78,1L102,225.1a2.74,2.74,0,0,0,.91-4.16,3.81,3.81,0,0,0-4.77-1Z" style="fill:#fa8f00;stroke:#fa8f00;stroke-miterlimit:10;stroke-width:4px;fill-rule:evenodd"/></svg>