<svg id="Capa_1" data-name="Capa 1" xmlns="http://www.w3.org/2000/svg" viewBox="0 0 408.65 344.47"><path d="M44.36,262.28,46,229.06a8.77,8.77,0,0,0-.45-2.69H363a9,9,0,0,0-.47,2.83l1.62,32.93c0,4.46,3.29,8.08,7.33,8.08h9.76c4,0,7.24-3.54,7.32-7.92l3.25-32.94v-.29a8.74,8.74,0,0,0-.48-2.82,7.87,7.87,0,0,0,6.18-8V191.37a8.53,8.53,0,0,0-1.88-5.36,8.48,8.48,0,0,0,1.88-5.35V129.14c0-4.46-3.28-8.08-7.32-8.08H361.48a6.89,6.89,0,0,0-2.44.49V90.11c0-4.45-3.28-8.07-7.32-8.07H209.2a6.94,6.94,0,0,0-4.88,2.1,6.92,6.92,0,0,0-4.88-2.1H56.92c-4,0-7.32,3.62-7.32,8.07v31.4a6.69,6.69,0,0,0-2.44-.5H18.42c-4,0-7.33,3.62-7.33,8.07v51.53A8.52,8.52,0,0,0,13,186a8.47,8.47,0,0,0-1.91,5.38V218.3a7.89,7.89,0,0,0,6.09,7.94,8.7,8.7,0,0,0-.49,2.82l3.25,33.24c.09,4.38,3.34,7.92,7.33,7.92H37c4,0,7.33-3.64,7.32-7.94Zm339.38-.43,0,.28a2.58,2.58,0,0,1-2.44,2.69h-9.76a2.62,2.62,0,0,1-2.44-2.84l-1.63-32.93a2.58,2.58,0,0,1,2.45-2.69h14.64a2.57,2.57,0,0,1,2.44,2.57Zm-22.26-135.4h28.75a2.57,2.57,0,0,1,2.44,2.68v51.53a2.59,2.59,0,0,1-2.18,2.66c-.09,0-.18,0-.26,0H361a2.65,2.65,0,0,1-1.93-2.63V129.13a2.57,2.57,0,0,1,2.43-2.68Zm-307,54.16V160.28a2.57,2.57,0,0,1,2.44-2.68H199.45a2.57,2.57,0,0,1,2.44,2.68v20.33a2.57,2.57,0,0,1-2.44,2.69H56.94a2.58,2.58,0,0,1-2.44-2.69Zm152.27,0V160.28a2.57,2.57,0,0,1,2.44-2.68H351.72a2.57,2.57,0,0,1,2.44,2.68v20.33a2.57,2.57,0,0,1-2.44,2.69H209.21a2.58,2.58,0,0,1-2.44-2.69Zm2.44-93.2H351.73a2.58,2.58,0,0,1,2.44,2.69v62.61a6.69,6.69,0,0,0-2.44-.5H209.21a6.73,6.73,0,0,0-2.44.5V90.1a2.58,2.58,0,0,1,2.44-2.69ZM54.5,90.1a2.57,2.57,0,0,1,2.43-2.69H199.45a2.58,2.58,0,0,1,2.44,2.69v62.61a6.69,6.69,0,0,0-2.44-.5H56.93a6.63,6.63,0,0,0-2.43.5ZM16,129.08a2.57,2.57,0,0,1,2.44-2.69H47.17a2.58,2.58,0,0,1,2.44,2.69v51.53a2.57,2.57,0,0,1-2.44,2.69H18.43A2.58,2.58,0,0,1,16,180.61Zm0,89.22V191.37a2.57,2.57,0,0,1,2.44-2.68H361c.17,0,.34.05.52.05h28.74l.26,0a2.59,2.59,0,0,1,2.18,2.65V218.3a2.57,2.57,0,0,1-2.44,2.69H18.43A2.58,2.58,0,0,1,16,218.3Zm8.85,43.84-3.25-33.2A2.57,2.57,0,0,1,24,226.37H38.67a2.53,2.53,0,0,1,2.44,2.54l-1.63,33.22A2.57,2.57,0,0,1,37,264.82H27.28a2.58,2.58,0,0,1-2.44-2.69Z" style="fill:#fa8f00;stroke:#fa8f00;stroke-miterlimit:10;stroke-width:4px"/></svg>