<svg id="Capa_1" data-name="Capa 1" xmlns="http://www.w3.org/2000/svg" viewBox="0 0 149.41 175.24"><path d="M127.74,122.2a38.19,38.19,0,0,1-11.95-27.66V75.08a41.94,41.94,0,0,0-29-39.6c3.08-6.49,3.76-9.56,3.76-11.27a16.39,16.39,0,1,0-32.78-.34c0,2.73,1,6.49,3.76,11.27a41.93,41.93,0,0,0-29,39.6V94.2a38.19,38.19,0,0,1-11.95,27.66,13.66,13.66,0,0,0,0,27.31H52.28a21.85,21.85,0,1,0,43.7,0h31.76a13.69,13.69,0,0,0,13.65-13.65,13.4,13.4,0,0,0-13.65-13.32ZM74.13,14.31a9.77,9.77,0,0,1,9.56,9.56c0,.68-.34,3.41-3.76,9.9-.34,0-8.19-1-11.6,0-3.42-6.49-3.76-8.88-3.76-9.9A9.77,9.77,0,0,1,74.13,14.31ZM39.3,94.54V75.08a34.83,34.83,0,0,1,69.66,0V94.54a45.24,45.24,0,0,0,9.56,27.66H29.74A45.24,45.24,0,0,0,39.3,94.54Zm49.85,55a15,15,0,1,1-30,0Zm38.59-6.82H20.52a6.83,6.83,0,0,1,0-13.66H127.73a6.83,6.83,0,0,1,0,13.66Z" style="fill:#104a82;stroke:#104a82;stroke-miterlimit:10;stroke-width:2px"/></svg>