<svg id="Capa_1" data-name="Capa 1" xmlns="http://www.w3.org/2000/svg" viewBox="0 0 186.13 175.24"><path d="M176.56,87.62A83.5,83.5,0,1,0,36.67,149.13l-.07.08,2.7,2.28c.17.15.37.26.55.41,1.43,1.19,2.93,2.32,4.44,3.41l1.48,1.07c1.64,1.11,3.29,2.18,5,3.17.37.23.74.43,1.11.65,1.86,1.06,3.77,2.07,5.71,3l.43.21a84.27,84.27,0,0,0,20.19,6.39l.56.09c2.2.38,4.42.68,6.67.88l.82.08c2.24.18,4.51.3,6.81.3s4.52-.12,6.74-.3c.28,0,.56,0,.85-.06,2.23-.21,4.43-.51,6.61-.87l.58-.11a82,82,0,0,0,19.89-6.24l.7-.31c1.88-.89,3.7-1.84,5.5-2.85.44-.25.89-.5,1.33-.77,1.63-1,3.25-2,4.81-3,.56-.37,1.11-.78,1.65-1.19,1.34-.94,2.66-1.93,3.92-3,.28-.22.59-.43.87-.66l2.77-2.32-.08-.08a83.24,83.24,0,0,0,27.35-61.73Zm-160.91,0A77.42,77.42,0,1,1,144.4,145.5a21.63,21.63,0,0,0-2.71-1.63L116,131a6.75,6.75,0,0,1-3.73-6.05v-9c.59-.73,1.23-1.56,1.87-2.47A61.82,61.82,0,0,0,122.06,98a11,11,0,0,0,6.33-10V77.2A11.1,11.1,0,0,0,125.71,70V55.84A24.58,24.58,0,0,0,120,38c-5.59-6.37-14.65-9.62-26.92-9.62S71.73,31.66,66.14,38a24.58,24.58,0,0,0-5.72,17.81V70a11.06,11.06,0,0,0-2.68,7.19V88a11.06,11.06,0,0,0,4.06,8.57,56.6,56.6,0,0,0,9.4,19.39v8.79a6.81,6.81,0,0,1-3.53,6l-24,13.09a21.59,21.59,0,0,0-2.28,1.45A77.26,77.26,0,0,1,15.65,87.62Zm122.84,62.64c-1.07.77-2.15,1.52-3.25,2.24l-1.51,1c-1.44.88-2.89,1.72-4.39,2.52-.32.16-.65.32-1,.5a77,77,0,0,1-10.6,4.48l-.38.13c-1.9.64-3.83,1.19-5.78,1.68h0c-2,.49-4,.88-6,1.23a.38.38,0,0,0-.16,0c-1.88.29-3.8.51-5.69.69l-1,.08c-1.88.13-3.78.22-5.67.22s-3.85-.09-5.76-.24c-.32,0-.66,0-1-.08q-2.89-.24-5.74-.69l-.25-.05A78.54,78.54,0,0,1,68.51,161l-.35-.14c-1.91-.63-3.79-1.36-5.65-2.16a0,0,0,0,1,0,0c-1.75-.75-3.47-1.59-5.18-2.47l-.67-.35c-1.55-.83-3.06-1.71-4.56-2.65-.45-.28-.89-.56-1.32-.86-1.38-.89-2.74-1.84-4.06-2.83l-.4-.31.28-.17,24-13.08a12.87,12.87,0,0,0,6.69-11.29V113.77l-.7-.84a50.74,50.74,0,0,1-9.11-18.88l-.27-1.19-1-.67A5,5,0,0,1,63.8,88V77.2a5,5,0,0,1,1.69-3.72l1-.91V55.67l0-.39A18.37,18.37,0,0,1,70.71,42c4.39-5,11.92-7.54,22.36-7.54S111,37,115.36,42a18.63,18.63,0,0,1,4.3,13.3l0,17.31,1,.9a5,5,0,0,1,1.69,3.71V88a5.08,5.08,0,0,1-3.59,4.79l-1.51.46-.49,1.51A55.89,55.89,0,0,1,109.16,110c-.8,1.13-1.57,2.12-2.23,2.89l-.74.85V125a12.77,12.77,0,0,0,7.08,11.48L139,149.31c.16.07.33.16.49.25l-1,.7Zm0,0" style="fill:#104a82;stroke:#104a82;stroke-miterlimit:10;stroke-width:2px"/></svg>